PathFileType	4	(X/Y/Z)	C:\Users\Basilio\Documents\Thesis Gigler\squatting_fais\c3dfiles\058\SLS_front_pre2\markers_experimental.trc
DataRate	CameraRate	NumFrames	NumMarkers	Units	OrigDataRate	OrigDataStartFrame	OrigNumFrames
200.000000	200.000000	4	61	mm	200.000000	782	1252
Frame#	Time	FHD			LBHD			RBHD			C7			T10			CLAV			LSHO			LUUPA			LMUPA			LDUPA			LLEP			LMEP			LUL			LRFIN			RSHO			RUPA1			RMUPA			RDUPA			RLEP			RMEP			RRAD			RUL			RUFIN			LASI			RASI			USACR			LSACR			RSACR			LTHI1			LTHI2			LTHI3			LTHI4			LLFC			LMFC			LTIB1			LTIB2			LTIB3			LTIB4			LLMAL			LMMAL			LHEE			LMT1			LMT2			LMT5			RTHI			RTHI2			RTHI3			RTHI4			RLFC			RMFC			RTIB2			RTIB3			RTIB4			RLMAL			RMMAL			RHEE			RMT1			RMT2			RMT5			RTIB1			LRAD			
		X1	Y1	Z1	X2	Y2	Z2	X3	Y3	Z3	X4	Y4	Z4	X5	Y5	Z5	X6	Y6	Z6	X7	Y7	Z7	X8	Y8	Z8	X9	Y9	Z9	X10	Y10	Z10	X11	Y11	Z11	X12	Y12	Z12	X13	Y13	Z13	X14	Y14	Z14	X15	Y15	Z15	X16	Y16	Z16	X17	Y17	Z17	X18	Y18	Z18	X19	Y19	Z19	X20	Y20	Z20	X21	Y21	Z21	X22	Y22	Z22	X23	Y23	Z23	X24	Y24	Z24	X25	Y25	Z25	X26	Y26	Z26	X27	Y27	Z27	X28	Y28	Z28	X29	Y29	Z29	X30	Y30	Z30	X31	Y31	Z31	X32	Y32	Z32	X33	Y33	Z33	X34	Y34	Z34	X35	Y35	Z35	X36	Y36	Z36	X37	Y37	Z37	X38	Y38	Z38	X39	Y39	Z39	X40	Y40	Z40	X41	Y41	Z41	X42	Y42	Z42	X43	Y43	Z43	X44	Y44	Z44	X45	Y45	Z45	X46	Y46	Z46	X47	Y47	Z47	X48	Y48	Z48	X49	Y49	Z49	X50	Y50	Z50	X51	Y51	Z51	X52	Y52	Z52	X53	Y53	Z53	X54	Y54	Z54	X55	Y55	Z55	X56	Y56	Z56	X57	Y57	Z57	X58	Y58	Z58	X59	Y59	Z59	X60	Y60	Z60	X61	Y61	Z61	

783	3.91	-248.7396850585938	1629.224243164063	-628.0766601562501	-394.789520263672	1561.488647460938	-709.5103759765626	-230.0260772705079	1637.86474609375	-769.1275024414065	-409.4632568359376	1437.937744140625	-719.2462158203126	-515.4758911132814	1158.466064453125	-712.7670288085939	-261.7429809570313	1363.278686523438	-698.6467285156251	-258.9337768554688	1417.35595703125	-852.0484619140627	-122.3699417114258	1343.870727539063	-974.805847167969	-93.89817047119142	1379.635498046875	-951.5879516601565	-52.10765838623048	1343.60205078125	-975.0022583007815	26.41231536865235	1344.923095703125	-965.7063598632815	30.73921012878419	1287.27587890625	-935.117370605469	295.4228820800782	1384.120849609375	-925.3944091796877	388.7515869140626	1379.676635742188	-843.262145996094	-282.6384582519532	1427.541015625	-552.4185180664064	-140.7669067382813	1341.527099609375	-432.0609436035157	-115.7235794067383	1379.2509765625	-454.5421142578126	-71.49460601806642	1348.546020507813	-429.0720825195314	-2.652104854583741	1339.69970703125	-432.2566528320314	7.758801937103273	1281.31201171875	-481.7130126953126	267.8656005859376	1377.761474609375	-517.2043457031251	266.2689819335938	1391.008178710938	-436.614959716797	359.7589416503907	1403.4853515625	-504.363739013672	-392.9571838378907	939.750427246094	-853.5896606445315	-383.6583557128907	926.299255371094	-618.7468261718751	-566.0726928710939	1032.744873046875	-715.0673217773439	-580.5941772460939	1004.341674804688	-743.1318359375001	-576.2778320312501	1000.427734375	-685.5688476562501	-311.7880859375001	733.5125122070314	-929.2965087890627	-238.5313720703126	691.8507690429689	-921.634216308594	-205.1985778808594	718.1380004882814	-894.204772949219	-226.7748413085938	632.8529052734376	-914.1069946289065	-160.5966033935547	559.9556884765626	-902.158874511719	-139.902084350586	566.0780029296876	-774.9797973632815	-32.01502990722657	493.4619445800782	-865.3322753906252	-46.24774551391602	433.8962707519532	-923.2622680664065	-11.19791316986084	450.328338623047	-899.3013916015627	42.20937728881837	388.8312988281251	-876.0137939453127	119.8918914794922	198.8974304199219	-895.3597412109377	135.7743377685547	223.1406860351563	-806.5092773437502	91.40490722656251	135.5646514892578	-840.8531494140627	285.3887329101563	244.2933807373047	-834.1533813476565	286.2138977050782	251.3511962890626	-879.962341308594	254.3615875244141	206.9492645263672	-931.5416259765627	-392.0501098632814	731.5155639648439	-549.6742553710939	-328.2851257324219	709.7401733398439	-552.5288696289064	-301.5428161621094	727.8490600585939	-556.3048095703126	-306.1531066894532	631.8050537109376	-575.1285400390626	-214.0067901611329	497.1676635742189	-607.2902221679689	-188.681137084961	508.3465881347657	-738.0259399414064	-278.7451782226563	249.5357208251954	-654.8856201171876	-249.8939666748047	237.2804260253907	-691.7924194335939	-277.1605529785157	203.7194824218751	-729.9021606445314	-364.2845153808594	112.7351379394532	-692.3513793945314	-334.2021179199219	138.4781494140625	-778.701354980469	-436.3369445800782	101.5829772949219	-757.2374267578126	-228.7686767578126	60.55261230468751	-768.575622558594	-221.4649505615235	60.97520828247072	-716.4428100585939	-271.0649414062501	27.81751060485841	-665.3832397460939	-219.6753387451172	318.9219970703126	-717.2406616210939	288.2257690429688	1353.087646484375	-849.2781982421877	
784	3.915	-248.7299804687501	1631.143188476563	-628.2028198242189	-395.3557434082032	1563.406982421875	-709.5338745117189	-229.9254608154297	1639.756103515625	-769.134216308594	-409.5246582031251	1439.663696289063	-719.2224121093751	-515.0954589843751	1160.107666015625	-712.8560791015626	-261.6916503906251	1365.08837890625	-698.7205810546876	-258.6467590332032	1419.011840820313	-852.0617675781252	-122.2297286987305	1346.065795898438	-975.0398559570315	-93.67388153076173	1381.69091796875	-951.500183105469	-52.13539123535158	1345.747436523438	-975.0963134765627	26.47800064086915	1347.076171875	-965.8499755859377	30.88886451721192	1289.199951171875	-935.3041992187502	295.6897277832032	1386.070068359375	-925.5879516601565	388.8882446289064	1381.5	-843.2856445312502	-282.7819519042969	1429.207763671875	-552.5852050781251	-140.6608581542969	1343.547241210938	-432.2575988769532	-115.5332717895508	1380.968872070313	-454.8448181152345	-71.51815795898439	1350.673950195313	-429.027313232422	-2.556378841400147	1341.70166015625	-432.3359375000001	7.657284259796144	1282.822021484375	-481.6987609863282	267.7785339355469	1379.295654296875	-517.0796508789064	266.5947265625001	1392.99951171875	-436.4564819335939	359.3900451660157	1404.561889648438	-504.6713256835939	-392.7279663085939	941.300720214844	-853.6766357421877	-383.3688964843751	927.824890136719	-618.8812255859376	-565.6802978515626	1034.492431640625	-714.9849243164064	-580.2930908203126	1006.041259765625	-743.1387329101564	-575.5738525390626	1002.208129882813	-685.5330810546876	-312.1825866699219	734.7816772460939	-929.2329711914065	-238.7996215820313	692.7969970703126	-921.795593261719	-205.3109741210938	719.0543823242189	-894.3853149414065	-227.4078521728516	633.9293212890626	-913.806823730469	-161.3436126708985	560.8405151367189	-902.2656250000002	-140.4198913574219	566.8775024414064	-775.0576782226565	-32.86498641967774	493.9950256347657	-865.3483886718752	-47.20660781860352	434.4581604003907	-923.221130371094	-12.47143363952637	450.6943969726564	-899.2673339843752	41.31821441650391	389.3370666503907	-876.0906372070315	119.2017593383789	199.7811889648438	-895.6289062500002	134.5791473388672	223.1887512207032	-806.5703125000002	89.95968627929689	135.99365234375	-840.9146728515627	283.9607849121094	244.0257110595704	-834.3475341796877	284.8248901367188	251.0739135742188	-880.1232910156252	252.8656005859376	206.7201843261719	-931.716247558594	-392.1778564453126	733.4672241210939	-549.7910156250001	-328.5951232910157	711.0783691406251	-552.8557739257814	-301.5098266601563	728.9826660156251	-556.3748168945314	-306.9554443359376	632.7991333007814	-575.3112182617189	-215.3092498779297	497.6531982421876	-607.3383789062501	-189.781723022461	508.916961669922	-738.1234741210939	-279.1716003417969	249.8083953857422	-654.8880004882814	-250.2471771240235	237.9201202392579	-691.8410034179689	-277.4081115722657	204.5368347167969	-729.9939575195314	-364.2778015136719	112.842514038086	-692.3590698242189	-334.3665466308594	138.5136871337891	-778.780456542969	-436.369354248047	101.583969116211	-757.2355346679689	-228.9478149414063	60.68098449707033	-768.5667724609377	-221.4584655761719	60.94606018066408	-716.4684448242189	-271.0564880371094	27.92432594299317	-665.3835449218751	-220.0257568359376	319.2834777832032	-717.2072143554689	288.3940734863282	1354.63232421875	-849.444763183594	
785	3.92	-248.791244506836	1633.153442382813	-628.2413330078126	-394.702606201172	1565.454345703125	-709.8588867187501	-229.6726989746094	1641.492553710938	-769.179870605469	-409.5843505859376	1441.310913085938	-719.2390136718751	-514.8446655273439	1161.963256835938	-713.0097045898439	-261.7965087890626	1367.052490234375	-698.8272094726564	-258.7973022460938	1421.067260742188	-852.1021118164065	-122.1280212402344	1348.3603515625	-975.1043090820315	-93.61174774169923	1383.77294921875	-951.4205322265627	-52.09424209594728	1347.8212890625	-975.160339355469	26.76734733581544	1349.208251953125	-965.9951782226565	30.85492515563966	1291.417602539063	-935.453552246094	295.6385803222657	1388.06884765625	-925.573425292969	388.7483825683595	1383.232543945313	-843.265563964844	-282.6783752441407	1431.10302734375	-552.6082763671876	-140.7516784667969	1345.324584960938	-432.1535644531251	-115.6255950927735	1382.803466796875	-454.8804626464845	-71.5904998779297	1352.549926757813	-428.9607238769532	-2.65481448173523	1343.175903320313	-432.2761230468751	7.652328014373781	1284.62646484375	-481.7249755859376	267.7199401855469	1380.859497070313	-517.0130615234376	266.6517333984376	1394.67138671875	-436.324920654297	359.9052124023438	1406.521484375	-504.147186279297	-392.1092834472657	943.0991821289065	-853.9165649414065	-383.0657958984376	929.7449951171877	-618.9361572265626	-565.4917602539064	1036.297485351563	-714.9963378906251	-580.1212158203126	1007.926086425781	-743.1671142578126	-575.2506103515626	1003.876708984375	-685.4376831054689	-312.5494384765626	736.0103759765626	-929.2377929687502	-239.4225158691407	693.9344482421876	-921.783874511719	-205.9750671386719	719.8211669921876	-894.4404296875002	-228.1188354492188	635.0701293945314	-914.1094360351565	-162.1021728515625	561.8051757812501	-902.341247558594	-141.1763916015625	567.5922851562501	-775.1824951171877	-33.85862350463868	494.6231384277345	-865.4882812500002	-48.55841064453126	434.9706115722657	-923.2152099609377	-13.36019229888916	451.145721435547	-899.3443603515627	40.10430908203126	389.8706359863282	-876.4384765625002	117.5950469970703	199.9685821533204	-895.6270751953127	132.9450836181641	223.5187225341797	-806.567077636719	87.89417266845705	135.7787780761719	-840.7358398437502	282.4011840820313	243.9405517578126	-834.3984375000002	283.3711853027344	250.9393920898438	-880.2764892578127	251.1790313720704	206.5215759277344	-931.705505371094	-392.4364013671876	734.6193237304689	-549.8962402343751	-328.8243713378907	712.3067626953126	-552.6359863281251	-301.9702148437501	729.9703979492189	-556.5320434570314	-307.2737731933594	633.6521606445314	-575.5195922851564	-216.4097137451172	498.1258544921876	-607.4838867187501	-190.9601287841797	509.465545654297	-738.1108398437501	-279.6421813964844	250.0317993164063	-654.8495483398439	-250.6140136718751	238.1663970947266	-691.9165039062501	-277.7362060546876	204.7210083007813	-729.9257812500001	-364.3358459472657	112.8119812011719	-692.3490600585939	-334.6074218750001	138.49560546875	-778.8746337890627	-436.3577270507814	101.581527709961	-757.2546386718751	-228.4454193115235	60.02112960815431	-768.651306152344	-221.4963073730469	60.94486618041994	-716.5356445312501	-271.0634155273438	27.89818000793458	-665.3836669921876	-220.6348571777344	319.5799255371094	-717.2637329101564	288.1983642578126	1356.672119140625	-849.5916748046877	
786	3.925	-248.7962341308594	1634.619995117188	-628.5084228515626	-394.6004333496095	1567.247436523438	-709.9533081054689	-229.6750640869141	1643.395385742188	-769.3160400390627	-409.520233154297	1443.15771484375	-719.3273315429689	-514.5812377929689	1163.4990234375	-713.1456298828126	-261.6059875488282	1368.811767578125	-698.8773193359376	-258.4082641601563	1423.109985351563	-852.152770996094	-121.9623107910157	1350.56787109375	-975.1719360351565	-93.52873992919923	1385.7021484375	-951.3415527343752	-51.95850372314455	1349.852172851563	-975.3193359375002	26.53843307495118	1351.08935546875	-965.9877929687502	31.56433677673341	1293.363037109375	-936.341003417969	295.8007812500001	1389.993286132813	-925.604187011719	388.8775939941407	1385.179565429688	-843.3055419921877	-282.6963500976563	1433.06640625	-552.5357055664064	-140.58740234375	1347.440307617188	-432.1578674316407	-115.5575027465821	1384.8037109375	-454.8976440429689	-71.57984161376955	1354.232543945313	-429.0147705078126	-2.600269317626954	1345.245361328125	-432.3312072753907	7.686263084411623	1286.612060546875	-481.5699768066407	267.8002014160157	1382.46435546875	-516.8892211914064	266.1334838867188	1395.675537109375	-436.7590637207032	359.8367919921876	1407.957641601563	-504.0753479003907	-391.6089477539064	944.6367187500002	-853.9088134765627	-382.6212463378907	930.9599609375002	-619.0506591796876	-565.2061157226564	1038.189453125	-714.9235229492189	-579.8966064453126	1009.65625	-743.1087036132814	-574.9517211914064	1005.771728515625	-685.2927246093751	-312.7238464355469	737.4020996093751	-929.318298339844	-239.8333740234376	695.0800170898439	-921.913513183594	-206.1446228027344	721.2893066406251	-894.757751464844	-228.5254058837891	636.1453857421876	-913.879821777344	-163.0282897949219	562.5555419921876	-902.2898559570315	-142.4213562011719	568.5775756835939	-775.2119140625002	-34.8254623413086	495.2774963378907	-865.5109863281252	-49.4779739379883	435.8466796875001	-923.3065185546877	-14.62386894226075	451.696990966797	-899.4367675781252	38.79985427856446	390.153289794922	-876.4862060546877	115.7340774536133	200.1922607421876	-895.415954589844	131.4892272949219	223.8721618652344	-806.6279296875002	86.68838500976564	136.4361724853516	-840.8829345703127	281.0212707519532	243.8460235595704	-834.491394042969	282.2977905273438	250.7086486816407	-880.3423461914065	249.5527343750001	206.3300170898438	-931.6505126953127	-392.658416748047	736.0593872070314	-550.0042114257814	-329.4030761718751	712.9869995117189	-553.0219116210939	-302.1345520019532	731.1831665039064	-556.5423583984376	-308.0809936523438	635.1220092773439	-575.6683959960939	-217.4171905517579	498.863494873047	-607.6825561523439	-192.1627349853516	510.0764770507814	-738.1640625000001	-280.1309814453126	250.4926757812501	-654.8989257812501	-251.0089874267579	238.3414459228516	-691.9982910156251	-277.9935302734376	205.0534667968751	-729.9133911132814	-364.3711547851563	112.8086547851563	-692.3928833007814	-334.7524719238282	138.5323486328125	-778.9351196289065	-436.380096435547	101.5756301879883	-757.2620239257814	-228.6369781494141	60.41735076904298	-768.6448364257815	-221.5124664306641	60.93294143676759	-716.5331420898439	-271.0653991699219	27.89525032043458	-665.3831787109376	-221.0420837402344	320.2746887207032	-717.2515869140626	288.3588562011719	1358.251342773438	-849.7127075195315	
